<svg width="736" height="288" viewBox="0 0 736 288" fill="none" xmlns="http://www.w3.org/2000/svg">
<path d="M426.808 116.229C428.688 117.01 430.752 119.354 432.678 122.938C434.283 125.971 435.75 127.074 438.227 127.074C440.565 127.074 442.4 125.65 443.913 122.663C445.839 118.849 447.811 116.964 449.966 116.964C452.81 116.964 454.14 118.159 456.708 123.076C458.634 126.66 460.239 127.763 463.036 127.396C465.1 127.12 466.751 125.741 467.989 123.26C469.135 121.008 471.887 118.021 473.492 117.148C476.748 115.494 481.105 116.965 483.535 120.595C485.828 123.995 486.103 126.431 485.232 136.173C484.773 140.906 483.948 150.464 483.306 157.403C482.664 164.342 481.059 183.182 479.637 199.22C478.261 215.257 476.702 233.041 476.198 238.739C475.693 244.437 474.547 257.533 473.676 267.919C472.758 278.258 471.933 287.035 471.841 287.311C471.704 287.77 467.026 287.908 450.563 287.908H429.513L429.238 285.702C429.101 284.508 428.55 279.315 428.046 274.122C427.541 268.93 426.441 257.166 425.524 247.929C424.652 238.693 422.772 219.071 421.396 204.274C420.021 189.478 418.232 170.867 417.498 162.917C414.472 130.934 414.288 128.223 414.747 125.787C415.618 121.054 417.498 118.205 420.846 116.551C423.093 115.448 424.744 115.356 426.808 116.229Z" fill="#E9B767"/>
<path d="M392.505 122.525C394.982 123.398 404.291 129.234 406.355 131.164C407.088 131.853 407.501 135.024 409.427 155.611C410.619 168.615 412.408 187.502 413.417 197.611C414.38 207.721 416.627 231.203 418.416 249.767C420.158 268.332 421.763 284.554 421.901 285.748L422.176 288L411.491 287.816C399.751 287.586 398.375 287.357 395.073 284.737C392.001 282.256 391.175 280.004 389.066 268.148C386.727 254.914 379.252 213.465 374.85 189.57C373.061 179.828 370.264 164.434 368.613 155.335C366.962 146.236 365.265 136.77 364.806 134.289C364.21 131.072 364.119 129.693 364.485 129.418C365.311 128.774 372.144 124.776 374.574 123.536C379.665 120.962 387.14 120.503 392.505 122.525Z" fill="#E9B767"/>
<path d="M518.342 122.065C519.993 122.341 522.378 123.076 523.57 123.674C526.964 125.328 535.356 131.21 535.356 131.899C535.356 132.542 531.916 152.026 528.018 173.256C524.441 192.786 515.04 245.31 512.151 261.485C510.73 269.573 509.262 277.293 508.895 278.626C508.116 281.613 505.41 284.691 502.108 286.438C499.861 287.632 499.632 287.678 489.634 287.816L479.408 288V286.759C479.408 286.07 479.729 282.072 480.096 277.89C481.793 258.958 486.012 211.121 487.892 189.11C490.781 155.243 492.707 133.875 492.936 132.818C493.166 131.853 501.283 125.879 504.997 123.949C507.107 122.846 511.601 121.652 513.986 121.606C514.719 121.56 516.691 121.79 518.342 122.065Z" fill="#E9B767"/>
<path d="M447.994 28.7816C441.62 29.7007 435.383 34.4338 432.54 40.5455C430.706 44.4974 430.66 46.3815 432.357 47.852C433.044 48.4494 434.007 48.9548 434.512 48.9548C435.704 48.9548 438.135 46.5653 438.135 45.4165C438.135 44.3136 440.336 40.8212 442.079 39.2129C445.564 35.9503 452.076 34.8933 456.524 36.8693C460.789 38.7534 464.733 43.7163 464.733 47.2546C464.733 48.9549 466.613 50.793 468.31 50.793C469.823 50.793 471.383 49.3225 471.841 47.4384C472.162 46.2896 472.346 46.1977 474.317 46.1977C475.831 46.1977 477.39 46.6113 479.316 47.6222C482.297 49.0927 483.856 50.6551 485.507 53.7339C486.516 55.6639 486.608 56.9966 486.149 66.1411C486.057 68.0711 486.195 68.4847 487.296 69.3118C489.726 71.1499 492.294 69.3578 493.165 65.3139C495.504 54.0556 490.368 43.946 480.417 40.2238C477.894 39.2588 472.942 38.8912 470.832 39.4427C470.236 39.6265 469.456 38.9372 467.943 36.8693C463.495 30.8495 455.745 27.7247 447.994 28.7816Z" fill="#080B1D"/>
<path d="M447.582 56.0314C445.839 56.399 444.555 56.9964 444.005 57.6857C441.666 60.6267 444.372 64.2569 448.132 63.2C453.131 61.8214 460.56 63.246 464.733 66.3708C469.09 69.6334 471.291 73.4934 472.3 79.3753C472.621 81.3513 473.951 82.5001 475.877 82.5001C477.436 82.5001 479.408 80.662 479.408 79.1456C479.408 76.9858 477.573 70.8741 476.106 68.3008C473.171 63.1081 467.072 58.375 461.064 56.5828C457.579 55.5259 450.929 55.2502 447.582 56.0314Z" fill="#080B1D"/>
<path d="M435.016 61.2239C432.494 62.4646 427.266 68.9439 424.698 74.0447C420.892 81.5349 420.708 84.8435 423.919 86.1762C425.203 86.6816 425.478 86.6816 426.578 85.8545C427.266 85.349 428.183 83.9245 428.688 82.6838C430.981 76.618 433.274 72.758 436.805 68.944C438.823 66.7842 440.428 64.6244 440.428 64.1649C440.428 63.062 438.685 61.0861 437.447 60.7184C436.943 60.5806 435.842 60.8103 435.016 61.2239Z" fill="#080B1D"/>
<path d="M419.058 64.1191C417.682 64.6705 416.123 66.7843 416.123 68.071C416.123 70.5984 418.37 72.8501 420.938 72.8501C422.772 72.8501 424.836 70.5524 424.836 68.5305C424.836 65.5896 421.534 63.0622 419.058 64.1191Z" fill="#080B1D"/>
<path d="M406.951 57.8234C400.255 60.5806 395.67 65.7732 393.881 72.6201C392.551 77.8587 393.239 80.3402 396.266 80.9375C398.329 81.3511 399.843 79.7428 400.21 76.7559C400.576 73.6311 401.952 70.5523 404.016 68.2546C405.942 66.1408 409.473 64.1189 411.307 64.1189C412.775 64.1189 415.205 61.8213 415.205 60.4427C415.205 59.8913 414.609 58.8344 413.876 58.0991C412.225 56.4448 410.482 56.3989 406.951 57.8234Z" fill="#080B1D"/>
<path d="M377.143 77.6292C373.566 78.5942 371.502 79.8349 368.613 82.7299C364.44 86.9116 362.468 91.7366 362.468 97.8942C362.468 102.949 364.256 108.647 366.733 111.312C367.925 112.645 370.676 112.737 371.823 111.496C372.969 110.255 372.832 108.371 371.502 105.706C368.292 99.3647 368.842 93.0692 373.015 88.2902C375.354 85.6709 377.693 84.6599 382.141 84.3842C385.626 84.1085 386.085 84.0166 386.91 82.8678C387.69 81.8568 387.736 81.3513 387.415 80.1106C386.635 77.3075 382.187 76.2046 377.143 77.6292Z" fill="#080B1D"/>
<path d="M445.381 79.2375C440.244 80.8918 435.613 84.4301 432.448 89.0713C430.935 91.323 430.614 92.242 430.752 94.0801C430.843 95.4587 432.494 96.7454 434.237 96.7454C435.658 96.7454 435.979 96.4697 437.63 94.0801C440.932 89.2092 444.372 86.7277 449.324 85.7168C456.57 84.2003 464.55 88.1523 467.989 94.9532C469.777 98.5375 471.887 99.5485 474.226 97.8942C475.877 96.7454 475.923 95.1371 474.409 91.8744C471.841 86.4061 465.742 81.1215 459.78 79.2834C455.882 78.0887 449.095 78.0427 445.381 79.2375Z" fill="#080B1D"/>
<path d="M505.823 66.1868C503.942 67.1978 503.3 68.2087 503.254 70.2307C503.254 72.6661 505.226 74.688 507.611 74.688C509.95 74.688 511.968 72.6661 511.968 70.3226C511.968 68.9899 511.601 68.2547 510.408 67.0599C508.666 65.3137 507.794 65.1759 505.823 66.1868Z" fill="#080B1D"/>
<path d="M516.095 78.4563C514.673 79.2375 513.664 81.2594 514.031 82.5001C514.673 84.568 516.003 85.2114 519.488 85.1194C522.102 85.0735 523.203 85.3033 524.854 86.1304C529.898 88.7497 532.329 92.8854 532.375 98.8133C532.375 102.03 532.191 102.903 530.907 105.66C529.119 109.336 529.073 110.026 530.311 111.358C532.512 113.702 535.264 113.013 536.869 109.75C539.391 104.787 540.171 100.56 539.483 95.7345C538.52 88.7497 534.072 82.3623 528.293 79.5132C526 78.4104 524.854 78.1347 521.415 77.9968C518.571 77.9049 516.875 78.0428 516.095 78.4563Z" fill="#080B1D"/>
<path fill-rule="evenodd" clip-rule="evenodd" d="M459.689 0.980194C465.604 2.72639 472.07 7.2757 472.07 9.71118C472.07 11.3195 470.695 11.0898 468.814 9.15976C465.237 5.48355 460.147 3.23189 454.231 2.72641C444.509 1.94522 435.796 6.90809 431.531 15.685C429.284 20.3262 429.009 22.1184 430.339 23.7727C432.265 26.2541 435.75 25.0134 436.576 21.6129C437.585 17.3393 441.299 12.9739 445.61 10.9979C448.04 9.84908 449.049 9.66525 452.58 9.66525C456.341 9.66525 457.029 9.80309 459.689 11.1357C463.724 13.1117 466.384 15.8229 468.264 19.8667C469.09 21.7048 470.19 23.4051 470.695 23.6808C472.437 24.5998 473.813 24.2322 475.326 22.3022C476.977 20.2803 477.757 20.0965 480.738 21.1534C484.911 22.6239 487.02 25.1972 488.534 30.8034C489.91 35.6744 492.065 37.3747 497.66 37.9261C505.868 38.7532 512.197 44.819 513.344 53.0445C513.802 56.2152 514.169 56.9964 516.049 58.8345C517.425 60.1212 517.746 60.2131 522.424 60.4428C528.064 60.7186 530.724 61.7295 533.109 64.4867C536.273 68.1169 537.236 72.2067 536.044 76.8939C535.539 78.8239 535.356 80.662 535.539 81.627C535.952 84.0165 538.153 86.3141 541.547 88.0144C545.124 89.8065 547.371 92.242 548.701 95.7804C550.168 99.6863 549.801 105.522 547.875 109.704C545.903 113.886 542.877 117.056 538.887 119.032C535.768 120.595 535.631 120.641 534.484 119.86C524.808 113.426 522.332 112.599 513.894 112.921L508.528 113.104L509.17 109.199C509.766 105.752 509.766 104.879 509.124 101.157C508.299 96.0561 506.281 91.7825 503.117 88.1982C499.494 84.1544 496.422 83.1894 494.587 85.5329C492.982 87.6008 493.349 88.7037 496.513 91.8744C500.411 95.6885 501.97 98.9511 502.246 103.914C502.475 107.866 501.741 111.358 499.999 114.759C499.728 115.301 498.975 116.317 498.061 117.438C497.196 118.501 496.187 119.658 495.309 120.595C494.287 121.686 493.444 122.479 493.211 122.479C493.074 122.479 492.248 120.962 491.423 119.078C488.167 111.818 481.93 107.866 475.005 108.693C473.492 108.877 471.428 109.428 470.42 109.888C468.585 110.761 465.192 113.886 463.541 116.275L462.578 117.654L461.431 115.816C455.882 106.993 446.252 106.487 440.061 114.667C439.19 115.816 438.364 116.781 438.181 116.873C438.043 116.919 437.493 116.229 437.034 115.356C435.888 113.288 432.861 110.439 430.247 109.061C428.642 108.188 427.541 108.004 424.377 108.004C420.984 108.004 420.112 108.188 417.728 109.336C413.279 111.542 409.84 115.816 408.097 121.284C407.904 121.944 407.645 121.948 406.355 120.717C406.117 120.49 405.843 120.22 405.529 119.905C404.594 118.987 403.744 117.938 402.994 116.799C400.14 112.465 398.732 106.835 399.568 102.214C400.439 97.1589 402.457 93.8504 406.721 90.4958C408.235 89.2551 408.51 88.7956 408.51 87.3251C408.51 83.7408 404.841 82.7298 401.448 85.441C397.412 88.6118 394.202 93.8963 392.918 99.3647C392.184 102.489 392.23 110.118 392.964 112.048C393.086 112.326 393.141 112.506 393.101 112.604C393.036 112.765 392.713 112.707 392.001 112.507C391.815 112.457 391.588 112.413 391.325 112.374C388.205 111.91 380.061 112.204 377.142 112.967C375.492 113.426 371.869 114.897 369.025 116.229L363.889 118.757L361.229 117.148C354.396 113.104 350.498 104.787 351.874 97.2968C352.837 92.1042 355.222 88.6577 359.762 85.8087C361.505 84.7518 362.926 82.4082 362.926 80.7079C362.926 80.1565 362.468 78.0427 361.963 75.9748C360.404 70.0469 361.596 64.8083 365.494 60.4888C369.209 56.3071 373.978 54.8366 380.261 55.8476C383.379 56.3531 383.975 56.3531 385.214 55.7097C386.819 54.8826 387.873 52.9066 388.378 49.9657C388.791 47.3004 391.175 43.9459 393.422 42.797C394.477 42.2456 396.449 41.7861 398.146 41.6942C402.09 41.4185 402.594 40.6832 401.723 36.4556C399.338 25.1053 406.767 13.2495 418.095 10.2626C419.975 9.75713 420.342 9.80308 421.029 10.4464C422.038 11.5033 421.213 12.4684 418.966 12.882C416.306 13.3874 412.133 15.8229 409.611 18.3503C406.676 21.3832 404.795 25.427 404.108 30.0682C403.603 33.3768 403.649 34.0661 404.612 37.7423C405.162 39.994 405.942 42.2916 406.309 42.843C407.639 44.9568 411.262 44.7271 412.316 42.4294C412.821 41.4185 412.729 40.7292 411.72 37.6504C409.886 31.9982 410.665 27.5408 414.151 23.6348C416.26 21.2912 418.645 20.0505 422.176 19.4991C426.349 18.8098 427.175 18.2124 429.376 14.1227C433.687 6.08095 439.74 1.57758 447.995 0.199005C451.067 -0.260521 456.708 0.107095 459.689 0.980194ZM432.54 40.5455C435.383 34.4338 441.62 29.7007 447.994 28.7816C455.745 27.7247 463.495 30.8495 467.943 36.8693C469.456 38.9372 470.236 39.6265 470.832 39.4427C472.942 38.8912 477.894 39.2588 480.417 40.2238C490.368 43.946 495.504 54.0556 493.165 65.3139C492.294 69.3578 489.726 71.1499 487.296 69.3118C486.195 68.4847 486.057 68.0711 486.149 66.1411C486.608 56.9966 486.516 55.6639 485.507 53.7339C483.856 50.6551 482.297 49.0927 479.316 47.6222C477.39 46.6113 475.831 46.1977 474.317 46.1977C472.346 46.1977 472.162 46.2896 471.841 47.4384C471.383 49.3225 469.823 50.793 468.31 50.793C466.613 50.793 464.733 48.9549 464.733 47.2546C464.733 43.7163 460.789 38.7534 456.524 36.8693C452.076 34.8933 445.564 35.9503 442.079 39.2129C440.336 40.8212 438.135 44.3136 438.135 45.4165C438.135 46.5653 435.704 48.9548 434.512 48.9548C434.007 48.9548 433.044 48.4494 432.357 47.852C430.66 46.3815 430.706 44.4974 432.54 40.5455ZM444.005 57.6857C444.555 56.9964 445.839 56.399 447.582 56.0314C450.929 55.2502 457.579 55.5259 461.064 56.5828C467.072 58.375 473.171 63.1081 476.106 68.3008C477.573 70.8741 479.408 76.9858 479.408 79.1456C479.408 80.662 477.436 82.5001 475.877 82.5001C473.951 82.5001 472.621 81.3513 472.3 79.3753C471.291 73.4934 469.09 69.6334 464.733 66.3708C460.56 63.246 453.131 61.8214 448.132 63.2C444.372 64.2569 441.666 60.6267 444.005 57.6857ZM393.881 72.6201C395.67 65.7732 400.255 60.5806 406.951 57.8234C410.482 56.3989 412.225 56.4448 413.876 58.0991C414.609 58.8344 415.205 59.8913 415.205 60.4427C415.205 61.8213 412.775 64.1189 411.307 64.1189C409.473 64.1189 405.942 66.1408 404.016 68.2546C401.952 70.5523 400.576 73.6311 400.21 76.7559C399.843 79.7428 398.329 81.3511 396.266 80.9375C393.239 80.3402 392.551 77.8587 393.881 72.6201ZM424.698 74.0447C427.266 68.9439 432.494 62.4646 435.016 61.2239C435.842 60.8103 436.943 60.5806 437.447 60.7184C438.685 61.0861 440.428 63.062 440.428 64.1649C440.428 64.6244 438.823 66.7842 436.805 68.944C433.274 72.758 430.981 76.618 428.688 82.6838C428.183 83.9245 427.266 85.349 426.578 85.8545C425.478 86.6816 425.203 86.6816 423.919 86.1762C420.708 84.8435 420.892 81.5349 424.698 74.0447ZM416.123 68.071C416.123 66.7843 417.682 64.6705 419.058 64.1191C421.534 63.0622 424.836 65.5896 424.836 68.5305C424.836 70.5524 422.772 72.8501 420.938 72.8501C418.37 72.8501 416.123 70.5984 416.123 68.071ZM503.254 70.2307C503.3 68.2087 503.942 67.1978 505.823 66.1868C507.794 65.1759 508.666 65.3137 510.408 67.0599C511.601 68.2547 511.968 68.9899 511.968 70.3226C511.968 72.6661 509.95 74.688 507.611 74.688C505.226 74.688 503.254 72.6661 503.254 70.2307ZM368.613 82.7299C371.502 79.8349 373.566 78.5942 377.143 77.6292C382.187 76.2046 386.635 77.3075 387.415 80.1106C387.736 81.3513 387.69 81.8568 386.91 82.8678C386.085 84.0166 385.626 84.1085 382.141 84.3842C377.693 84.6599 375.354 85.6709 373.015 88.2902C368.842 93.0692 368.292 99.3647 371.502 105.706C372.832 108.371 372.969 110.255 371.823 111.496C370.676 112.737 367.925 112.645 366.733 111.312C364.256 108.647 362.468 102.949 362.468 97.8942C362.468 91.7366 364.44 86.9116 368.613 82.7299ZM514.031 82.5001C513.664 81.2594 514.673 79.2375 516.095 78.4563C516.875 78.0428 518.571 77.9049 521.415 77.9968C524.854 78.1347 526 78.4104 528.293 79.5132C534.072 82.3623 538.52 88.7497 539.483 95.7345C540.171 100.56 539.391 104.787 536.869 109.75C535.264 113.013 532.512 113.702 530.311 111.358C529.073 110.026 529.119 109.336 530.907 105.66C532.191 102.903 532.375 102.03 532.375 98.8133C532.329 92.8854 529.898 88.7497 524.854 86.1304C523.203 85.3033 522.102 85.0735 519.488 85.1194C516.003 85.2114 514.673 84.568 514.031 82.5001ZM432.448 89.0713C435.613 84.4301 440.244 80.8918 445.381 79.2375C449.095 78.0427 455.882 78.0887 459.78 79.2834C465.742 81.1215 471.841 86.4061 474.409 91.8744C475.923 95.1371 475.877 96.7454 474.226 97.8942C471.887 99.5485 469.777 98.5375 467.989 94.9532C464.55 88.1523 456.57 84.2003 449.324 85.7168C444.372 86.7277 440.932 89.2092 437.63 94.0801C435.979 96.4697 435.658 96.7454 434.237 96.7454C432.494 96.7454 430.843 95.4587 430.752 94.0801C430.614 92.242 430.935 91.323 432.448 89.0713Z" fill="white"/>
<path d="M399.568 102.214C398.732 106.835 400.14 112.465 402.994 116.799C399.904 114.344 395.935 113.099 393.101 112.604C393.141 112.506 393.086 112.326 392.964 112.048C392.23 110.118 392.184 102.489 392.918 99.3647C394.202 93.8963 397.412 88.6118 401.448 85.441C404.841 82.7298 408.51 83.7408 408.51 87.3251C408.51 88.7956 408.235 89.2551 406.721 90.4958C402.457 93.8504 400.439 97.1589 399.568 102.214Z" fill="#080B1D"/>
<path d="M509.17 109.199L508.528 113.104C506.152 113.362 501.508 114.572 498.061 117.438C498.975 116.317 499.728 115.301 499.999 114.759C501.741 111.358 502.475 107.866 502.246 103.914C501.97 98.9511 500.411 95.6885 496.513 91.8744C493.349 88.7037 492.982 87.6008 494.587 85.5329C496.422 83.1894 499.494 84.1544 503.117 88.1982C506.281 91.7825 508.299 96.0561 509.124 101.157C509.766 104.879 509.766 105.752 509.17 109.199Z" fill="#080B1D"/>
<path d="M504.401 29.7006C512.977 32.3658 520.222 40.2237 522.286 49.1385C523.066 52.4012 522.836 53.55 521.598 53.55C520.497 53.55 520.314 53.2283 519.764 50.2414C519.534 48.9088 518.48 46.1056 517.471 44.0837C514.169 37.3746 507.611 32.6415 499.815 31.4008C496.88 30.8953 496.146 30.6196 496.009 29.9303C495.917 29.4708 496.101 28.8734 496.467 28.6896C497.247 28.1382 500.916 28.5977 504.401 29.7006Z" fill="white"/>
<path d="M686.752 215.4H711.352C720.952 215.2 730.152 214.8 735.752 212.2V249H650.352L686.752 142.8H678.152C668.552 143 659.352 143.4 653.752 146V109.2H735.752L700.352 212.2L686.752 215.4Z" fill="white"/>
<path d="M601.4 215.4H626C635.6 215.2 644.8 214.8 650.4 212.2V249H565L601.4 142.8H592.8C583.2 143 574 143.4 568.4 146V109.2H650.4L615 212.2L601.4 215.4Z" fill="white"/>
<path d="M280.087 169.8L280.287 170L293.887 109.2H337.687L298.087 249H262.287L222.887 109.2H271.087C267.487 115.2 270.687 124 271.887 133.6L278.287 161.8L277.887 179.2L280.087 169.8Z" fill="white"/>
<path d="M178.311 107.4C207.111 107.6 229.711 125.2 230.311 179.2C230.911 232.4 207.111 250.8 178.311 251H177.911C148.911 251 124.911 232.6 125.511 179.2C125.911 125 148.911 107.4 177.911 107.4H178.311ZM178.111 215.8C188.111 215.8 192.511 199.4 192.511 179C192.511 158.8 187.511 142.6 177.911 142.4H177.711C168.311 142.6 163.311 158.8 163.311 179C163.311 199.4 167.711 216 177.911 215.8H178.111Z" fill="white"/>
<path d="M62.4 164.2L80.6 109.2H119.8V249H79.2C81.6 243.4 82 234.4 82.2 224.6V187.2L69 216.2H50.6L37.4 187.2V249H0V109.2H45.6C43 114 46.6 123.4 49.2 133.6L64 182L62.4 164.2Z" fill="white"/>
</svg>
